<svg id="bare-minerals" xmlns="http://www.w3.org/2000/svg" width="226.772" height="26.072" viewBox="0 0 226.772 26.072">
  <path id="Path_93" data-name="Path 93" d="M39.779,304.353c-2.626,0-6.19,2.063-6.19,7.5,0,4.689,1.876,8.253,6.19,8.253,3.939,0,6.565-3,6.565-8.065-.188-4.689-2.251-7.69-6.565-7.69M28.9,319.546h2.626V297.788H28.9V296.1h4.877v10.5h0a6.585,6.585,0,0,1,6.377-3.939c5.064,0,8.066,3.564,8.066,9.378,0,8.065-4.877,9.754-7.878,9.754s-4.877-.938-6.565-3.939h0v3.376H28.9Z" transform="translate(-28.9 -296.1)"/>
  <path id="Path_94" data-name="Path 94" d="M116,316.481h3.189v-14.63H116v-1.688h5.252v3.564h0A5.364,5.364,0,0,1,126.5,299.6a4.524,4.524,0,0,1,3.376,1.313l-.938,1.5a3.171,3.171,0,0,0-2.251-.75c-3.751,0-5.44,2.251-5.44,6.565v8.441h3v1.688H116Z" transform="translate(47.373 -293.035)"/>
  <path id="Path_95" data-name="Path 95" d="M72.638,297.788H70.2V296.1h6.377l8.441,21.758h.188L93.646,296.1h6.377v1.688H97.585v21.758h2.438v1.5H92.708v-1.5h2.626V297.788h-.188l-9.191,23.259H84.268l-9.191-23.259h-.188v21.758h2.626v1.5H70.2v-1.5h2.438Z" transform="translate(7.266 -296.1)"/>
  <path id="Path_96" data-name="Path 96" d="M140.3,311.98h1.688c.188,3.939,3.189,5.064,5.627,5.064,3,0,4.5-1.688,4.5-3.939,0-1.876-.938-2.626-4.314-3.189l-2.626-.375c-3.189-.563-4.877-2.063-4.877-4.877,0-3.189,2.814-5.064,6.19-5.064,2.438,0,4.314.938,5.252,3h0v-2.438h1.688v6h-1.688v-.938c0-3-2.814-3.939-5.064-3.939-2.626,0-4.314,1.5-4.314,3.564s1.5,2.814,3.564,3l3,.375c3.751.563,5.252,2.438,5.252,4.877,0,3.376-2.626,5.627-6.377,5.627a6.261,6.261,0,0,1-5.815-3.189h0v2.626H140.3Z" transform="translate(68.653 -293.035)"/>
  <path id="Path_97" data-name="Path 97" d="M91.376,299.2a1.5,1.5,0,1,0-1.5-1.5,1.614,1.614,0,0,0,1.5,1.5m24.572,20.258V310.08c0-5.064-1.876-7.5-6-7.5a5.778,5.778,0,0,0-5.815,3.751h0V303.14H98.879v1.688h3.189v14.63H93.44V303.14H88.75v1.688h2.626v14.63H88v1.688h19.32v-1.688h-3.189v-7.69c0-4.689,2.251-7.5,5.252-7.5s4.689,1.876,4.689,5.815v9.378h-2.626v1.688h7.69v-1.688h-3.189Z" transform="translate(22.854 -296.012)"/>
  <path id="Path_98" data-name="Path 98" d="M53.48,309.729c0,3.939-1.688,7.315-6,7.315-2.814,0-4.5-1.313-4.5-3.751,0-3,1.876-3.939,6.753-3.939a26.414,26.414,0,0,1,3.751.188v.188ZM71.674,299.6a5.363,5.363,0,0,0-5.252,4.127h0v-3.564H61.17v1.688h3.189v14.63h-6.94c-1.688,0-1.688-1.313-1.688-2.438v-7.5c0-3.751-1.5-6.753-6.94-6.753-3.564,0-6.377,1.688-6.94,5.44h2.063a4.582,4.582,0,0,1,4.877-3.751c3,0,4.877.938,4.877,4.877v1.5H49.353c-5.815,0-8.253,1.688-8.253,5.44s2.438,5.627,6.19,5.627c3,0,5.44-1.125,6.565-4.689h0s-.188,2.251.75,3.189a4.687,4.687,0,0,0,3.376.938H70.173v-1.688H66.422v-8.441c0-4.314,1.876-6.565,5.44-6.565a5.891,5.891,0,0,1,2.251.75l.938-1.5a4.524,4.524,0,0,0-3.376-1.313" transform="translate(-18.216 -293.035)"/>
  <path id="Path_99" data-name="Path 99" d="M136.767,312.706c0,3.939-1.688,7.315-6,7.315-2.814,0-4.5-1.313-4.5-3.751,0-3,1.876-3.939,6.753-3.939a26.418,26.418,0,0,1,3.751.188Zm11.254,6.753V296.2h-5.44v1.688h3.376v21.758h-5.252c-1.688,0-1.688-1.313-1.688-2.438v-7.5c0-3.751-1.5-6.753-6.94-6.753-3.564,0-6.377,1.688-6.94,5.44H127.2a4.582,4.582,0,0,1,4.877-3.751c3,0,4.877.938,4.877,4.877v1.5h-4.314c-5.815,0-8.441,1.688-8.441,5.439s2.438,5.627,6.19,5.627c3,0,5.44-1.125,6.565-4.689h0s-.188,2.251.75,3.189a4.686,4.686,0,0,0,3.376.938H151.21v-1.688h-3.189Z" transform="translate(54.554 -296.012)"/>
  <path id="Path_100" data-name="Path 100" d="M62.038,307.1c.563-3.939,3-6,6.19-6,3.376,0,5.627,1.876,6.19,6v.375H62.038s0,0,0-.375m6,9.754c-3.751,0-6.19-3.189-6.19-7.69H76.294c0-5.627-3.189-9.566-8.066-9.566-5.44,0-8.628,3.751-8.628,9.379s2.814,9.566,8.441,9.566c3.939,0,6.94-1.876,7.878-6H73.855c-.75,3-2.814,4.314-5.815,4.314" transform="translate(-2.016 -293.035)"/>
  <path id="Path_101" data-name="Path 101" d="M108.038,307.1c.563-3.939,3-6,6.19-6,3.564,0,5.627,1.876,6.19,6v.375h-12.38c-.188,0-.188,0,0-.375m6,9.754c-3.751,0-6.19-3.189-6.19-7.69h14.443c0-5.627-3-9.566-8.066-9.566-5.44,0-8.628,3.751-8.628,9.379s2.814,9.566,8.441,9.566c3.939,0,6.94-1.876,7.878-6h-2.063a5.611,5.611,0,0,1-5.815,4.314" transform="translate(38.266 -293.035)"/>
  <path id="Path_102" data-name="Path 102" d="M149.688,301.788h.375l.188-.187v-.375h-.938v.563Zm.188-.75a.689.689,0,0,1,.563.188c.188,0,.188.188.188.375s0,.375-.188.375l-.375.188.563.938h-.375l-.563-.75h-.375v.75h-.375v-1.876h.938Zm-1.313,1.5a.4.4,0,0,0,.375.375l.375.375c.188,0,.375.188.563.188a.689.689,0,0,0,.563-.188.4.4,0,0,0,.375-.375l.375-.375c0-.188.188-.375.188-.563a.689.689,0,0,0-.188-.563.4.4,0,0,0-.375-.375l-.375-.375c-.188,0-.375-.187-.563-.187a.689.689,0,0,0-.563.188.4.4,0,0,0-.375.375l-.375.375c0,.188-.188.375-.188.563a.689.689,0,0,0,.188.563m-.375-1.313c0-.188.188-.375.375-.563s.375-.187.563-.375c.188,0,.375-.188.563-.188a.689.689,0,0,1,.563.188c.188,0,.375.188.563.375s.188.375.375.563c0,.188.188.375.188.563a1.418,1.418,0,0,1-.188.75c0,.188-.188.375-.375.563s-.375.188-.563.375c-.188,0-.375.188-.563.188a.689.689,0,0,1-.563-.188c-.188,0-.375-.188-.563-.375s-.188-.375-.375-.563c0-.188-.188-.375-.188-.75a1.889,1.889,0,0,0,.188-.563" transform="translate(75.396 -292.597)"/>
</svg>
