<svg id="beauty-pie" xmlns="http://www.w3.org/2000/svg" width="249.843" height="20.445" viewBox="0 0 249.843 20.445">
  <path id="Path_29" data-name="Path 29" d="M271.793,508.692v-4.127h-7.5v-3.751h8.066v-4.127H259.6v20.07h12.942v-4.127H264.29v-3.939Zm-30.949,7.878h4.689V496.5h-4.689ZM221.149,501a2.812,2.812,0,0,1,3,2.813c0,1.876-1.125,2.814-3,2.814H218.9V501Zm-6.94,15.568H218.9v-5.627h2.626a7.212,7.212,0,0,0,7.5-7.128,7.1,7.1,0,0,0-7.315-7.315H214.4v20.07Zm-34.138-19.882L176.32,504l-3.939-7.315h-5.252l6.752,12v8.065h4.689V508.5l6.565-11.817ZM138.431,501h6.19V516.57h4.689V501h6.19v-4.314H138.431Zm-20.445,15.943c4.5,0,7.878-3.189,7.878-7.5V496.5h-4.689v12.38c0,2.063-1.125,3.564-3.189,3.564s-3.189-1.688-3.189-3.564V496.5h-4.689v12.942c0,4.314,3.376,7.5,7.878,7.5M88.537,503.628l2.438,6.565H86.286ZM78.783,516.57H83.66l.938-2.626h7.69l.938,2.626H98.1L90.6,496.5H86.1Zm-14.63-7.878v-4.127h-7.5v-3.751h8.066v-4.127H51.961v20.07H64.9v-4.127H56.65v-3.939Zm-34.7-8.066c1.5,0,2.438.938,2.438,1.876a2.167,2.167,0,0,1-2.251,2.251H27.389v-4.127Zm.563,7.69a2.023,2.023,0,0,1,2.251,2.063,2.07,2.07,0,0,1-2.251,2.251H27.2v-4.314h2.814Zm-7.128,8.253h7.878a5.709,5.709,0,0,0,6-6,5.089,5.089,0,0,0-2.626-4.127,4.644,4.644,0,0,0,2.063-3.939,5.971,5.971,0,0,0-6.19-6H22.7v20.07Z" transform="translate(-22.7 -496.5)"/>
</svg>
