<svg id="conde-nast" xmlns="http://www.w3.org/2000/svg" width="245.717" height="35.638" viewBox="0 0 245.717 35.638">
  <path id="Path_30" data-name="Path 30" d="M94.278,447.577l-.563-1.688.563-3-.188-.188-7.69,6.565v.188l7.878-1.876Z" transform="translate(31.019 -442.7)" fill="#13110c"/>
  <g id="Group_4" data-name="Group 4" transform="translate(0 9.379)">
    <path id="Path_31" data-name="Path 31" d="M41.994,471.246a7.367,7.367,0,0,1-5.252,2.063c-6.19,0-7.5-5.252-7.5-12.38s1.313-12.38,7.5-12.38a8.18,8.18,0,0,1,5.064,2.063l3.376,5.815h.188v-8.253h-.188l-3.189,1.688a7.367,7.367,0,0,0-5.252-2.063A12.935,12.935,0,0,0,23.8,460.742c0,8.253,6.94,12.942,13.13,12.942a7.368,7.368,0,0,0,5.252-2.063l3.376,1.688h.188v-8.441h-.188Z" transform="translate(-23.8 -447.612)" fill="#13110c"/>
    <path id="Path_32" data-name="Path 32" d="M50.067,447.9a12.948,12.948,0,0,0,0,25.885,12.944,12.944,0,0,0,0-25.885Zm0,25.322c-5.815,0-7.128-4.877-7.128-12.38s1.313-12.38,7.128-12.38,7.128,4.877,7.128,12.38C57.195,468.158,55.882,473.222,50.067,473.222Z" transform="translate(-11.803 -447.525)" fill="#13110c"/>
    <path id="Path_33" data-name="Path 33" d="M69.932,448.563H73.12v15.943h0L62.054,448.187H52.488v.375h3v24.009H52.3v.375h6.94v-.375h-3v-24.2h0L73.5,473.322h.188V448.375h3.189V448H70.119l-.188.563Z" transform="translate(1.157 -447.437)" fill="#13110c"/>
    <path id="Path_34" data-name="Path 34" d="M77.491,448.1H66.8v.375h3.189v24.009H66.8v.375H77.491c5.252,0,14.443-2.438,14.443-12.567S82.743,448.1,77.491,448.1ZM77.3,472.672H74.678v-24.2H77.3c6.377,0,9.191,4.5,9.191,12S83.681,472.672,77.3,472.672Z" transform="translate(13.855 -447.35)" fill="#13110c"/>
    <path id="Path_35" data-name="Path 35" d="M98.769,472.584H89.578V459.829h4.5c1.5,1.313,3.189,4.877,3.189,4.877h.188V454.577h-.188s-1.688,3.564-3.189,4.877h-4.5V448.575h8.065c2.438,1.688,4.5,6.377,4.5,6.377h.188V448.2H81.7v.375h3.189v24.009H81.7v.375h21.571v-8.441H102.9s-2.063,5.627-4.127,8.065Z" transform="translate(26.903 -447.262)" fill="#13110c"/>
    <path id="Path_36" data-name="Path 36" d="M128.1,448.1h-6.753v.375h3.189v15.943h0L113.466,448.1H103.9v.375h3.189v24.009H103.9v.375h6.752v-.375h-3.189v-24.2h0l17.256,24.947h.188V448.288H128.1V448.1Z" transform="translate(46.344 -447.35)" fill="#13110c"/>
    <path id="Path_37" data-name="Path 37" d="M130.017,447.7h0l-10.5,25.322H116.7v.375h6.565v-.375h-3.189l3.939-9.566h7.878l4.127,9.566h-3.189v.375h11.254v-.375h-2.814Zm-6,15.381,3.564-9,3.939,9Z" transform="translate(57.553 -447.7)" fill="#13110c"/>
    <path id="Path_38" data-name="Path 38" d="M144.48,458.591,139.79,456.9c-2.438-.75-4.314-2.063-4.314-4.314,0-2.814,2.063-4.314,5.252-4.314h.375a5.515,5.515,0,0,1,4.127,1.688l3.376,5.815h.188V447.9h-.188l-3.189,1.688A6.831,6.831,0,0,0,141.1,447.9h-.188c-4.5,0-7.5,3-7.69,7.5,0,3.564,2.438,5.252,5.064,6.377l4.877,1.688c2.626.938,4.314,2.063,4.314,4.689,0,2.438-1.688,4.877-5.815,5.064a8.841,8.841,0,0,1-5.627-2.251l-3.751-6.377H132.1l.188,8.628h.188l3.376-1.688a10,10,0,0,0,5.627,2.251c5.252,0,8.816-3.939,8.816-8.065-.188-4.314-2.814-6.19-5.815-7.128Z" transform="translate(71.038 -447.525)" fill="#13110c"/>
    <path id="Path_39" data-name="Path 39" d="M143,448.1v7.69h.188a41.3,41.3,0,0,1,4.314-7.315h4.127v24.2h-3.751v.375h12.38v-.375h-3.751v-24.2h4.126a41.3,41.3,0,0,1,4.314,7.315h.188V448.1Z" transform="translate(80.583 -447.35)" fill="#13110c"/>
  </g>
</svg>
