<svg id="feelunique" xmlns="http://www.w3.org/2000/svg" width="208.015" height="18.757" viewBox="0 0 208.015 18.757">
  <path id="Path_84" data-name="Path 84" d="M33.9,546.8H45.154v.938H34.838v7.878h8.816v.938H34.838v8.628H33.9Z" transform="translate(-33.9 -546.8)"/>
  <path id="Path_85" data-name="Path 85" d="M44.7,546.8H55.579v.938H45.638v7.878h8.253v.75H45.638v7.878h10.5v.938H44.7Z" transform="translate(-24.442 -546.8)"/>
  <path id="Path_86" data-name="Path 86" d="M55.7,546.8H66.391v.938H56.638v7.878h8.253v.75H56.638v7.878H66.954v.938H55.7Z" transform="translate(-14.81 -546.8)"/>
  <path id="Path_87" data-name="Path 87" d="M66.7,546.8h.938v17.444h9.941v.938H66.7Z" transform="translate(-5.177 -546.8)"/>
  <path id="Path_88" data-name="Path 88" d="M76.5,557.679V546.8h2.251v10.692c0,3.376,1.876,5.627,4.877,5.627,2.814,0,4.877-2.063,4.877-5.627V546.8h2.251v10.879c0,4.689-2.814,7.5-7.128,7.5-4.127,0-7.128-2.626-7.128-7.5" transform="translate(3.405 -546.8)"/>
  <path id="Path_89" data-name="Path 89" d="M104.618,546.8v18.382h-2.251L92.051,550.739h0v14.443H89.8V546.8h2.251l10.316,14.63h0V546.8Z" transform="translate(15.052 -546.8)"/>
  <rect id="Rectangle_7" data-name="Rectangle 7" width="2.251" height="18.194" transform="translate(130.736 0)"/>
  <path id="Path_90" data-name="Path 90" d="M123.517,561.806l-2.063-1.876,1.313-1.5,2.251,2.063a7.833,7.833,0,0,0,1.313-4.314c0-4.127-2.814-7.128-6.753-7.128a7.13,7.13,0,0,0,0,14.255,10.1,10.1,0,0,0,3.939-1.5m4.127,3.751-2.438-2.251a9.2,9.2,0,0,1-15.006-7.128,9.193,9.193,0,1,1,18.382,0,9.787,9.787,0,0,1-1.876,5.815l2.251,2.063Z" transform="translate(32.916 -546.8)"/>
  <path id="Path_91" data-name="Path 91" d="M125.3,557.679V546.8h2.251v10.692c0,3.376,1.876,5.627,4.877,5.627,2.814,0,4.877-2.063,4.877-5.627V546.8h2.251v10.879c0,4.689-2.814,7.5-7.128,7.5s-7.128-2.626-7.128-7.5" transform="translate(46.139 -546.8)"/>
  <path id="Path_92" data-name="Path 92" d="M138.6,546.8h11.067v2.063h-8.816v6.19h7.315v2.063h-7.315v6h9.378v2.063H138.6Z" transform="translate(57.786 -546.8)"/>
</svg>
