<svg id="guerlain" xmlns="http://www.w3.org/2000/svg" width="213.642" height="27.01" viewBox="0 0 213.642 27.01">
  <path id="Path_47" data-name="Path 47" d="M52.845,411.706h6l-.188.188c-1.5,4.314-5.44,6.753-10.691,6.753-6.94,0-11.629-3.939-11.629-9.941a9.241,9.241,0,0,1,3.751-7.5,13.551,13.551,0,0,1,7.878-2.438,12.189,12.189,0,0,1,9.754,4.314L61.1,401.2a15.576,15.576,0,0,0-12.942-6,17.117,17.117,0,0,0-10.879,3.376,12.762,12.762,0,0,0,0,20.07c2.626,2.251,6.565,3.376,10.691,3.376,9.191,0,15.381-5.627,15.381-13.88v-.188h-10.5v3.751Z" transform="translate(-32.4 -395.2)"/>
  <path id="Path_48" data-name="Path 48" d="M64.417,421.159c-7.878,0-13.317-3.376-13.317-8.441V396.4h3.751v15.381c0,3.939,3.376,6,9.566,6s9.566-2.063,9.566-6V396.4h3.751v16.319c0,5.064-5.252,8.441-13.317,8.441" transform="translate(-16.024 -394.149)"/>
  <path id="Path_49" data-name="Path 49" d="M71.851,409.53H85.544v-3.376H71.851v-6.565H89.3V396.4H68.1v24.009H89.3v-3.376H71.851Z" transform="translate(-1.138 -394.149)"/>
  <path id="Path_50" data-name="Path 50" d="M106.309,420.321l-5.815-9.378h.375A6.586,6.586,0,0,0,106.5,404c0-4.689-2.814-7.5-7.128-7.5H82.3v24.009h3.189V411.13H96.93l6,9.378h3.376Zm-21.2-12.567v-8.065H98.056c3.189,0,4.689,1.5,4.689,4.127,0,2.438-1.688,3.939-4.5,3.939H85.114Z" transform="translate(11.297 -394.062)"/>
  <path id="Path_51" data-name="Path 51" d="M118.983,417.033H100.976V396.4H97.6v24.009h21.383Z" transform="translate(24.696 -394.149)"/>
  <path id="Path_52" data-name="Path 52" d="M126.843,396.4h-4.314L110.9,420.409h3.564l2.626-5.439h15.193l2.626,5.439h3.564Zm-8.253,15.193,6-12.38,6,12.38Z" transform="translate(36.342 -394.149)"/>
  <rect id="Rectangle_2" data-name="Rectangle 2" width="3.376" height="24.009" transform="translate(178.567 2.251)"/>
  <path id="Path_53" data-name="Path 53" d="M154.908,396.4v20.258L136.9,396.4h-4.5v24.009h3.376V399.964l18.194,20.445h4.5V396.4Z" transform="translate(55.17 -394.149)"/>
</svg>
