<svg id="hot-hair" xmlns="http://www.w3.org/2000/svg" width="173.315" height="45.688" viewBox="0 0 173.315 45.688">
  <path id="Path_446" data-name="Path 446" d="M55.3,64.022V76.589a4.164,4.164,0,0,0,.188,1.688c0,.188.188.188.563.375a11.958,11.958,0,0,0,1.688.375c.75,0,1.5.188,2.251.188v.563H43.3v-.563a17.161,17.161,0,0,0,3.189-.188,4.693,4.693,0,0,0,2.438-.563,3.006,3.006,0,0,0,.375-1.876V42.451a8.124,8.124,0,0,0-.188-.938c-.375-.375-.563-.75-.75-.75a24.486,24.486,0,0,0-5.064-.375v-.563l12-1.125V60.833a13.108,13.108,0,0,1,1.876-4.877,5.957,5.957,0,0,1,4.314-3.189h2.063c3,0,5.064.75,6.565,2.438A6.857,6.857,0,0,1,71.811,59.9V76.589A4.163,4.163,0,0,0,72,78.277c0,.188.375.188.563.375a10.559,10.559,0,0,0,1.876.375c.938,0,1.688.188,2.626.188v.563H60.932v-.563a9.132,9.132,0,0,0,2.251-.188,4,4,0,0,0,2.251-.563,3.006,3.006,0,0,0,.375-1.876V59.708a9.657,9.657,0,0,0-.563-3.939,3.37,3.37,0,0,0-3.376-2.063q-2.532,0-4.5,3.376a17.812,17.812,0,0,0-2.063,6.94" transform="translate(-43.3 -38.7)"/>
  <path id="Path_447" data-name="Path 447" d="M79.532,59.805c0-4.689-.375-7.878-1.125-9.754a4.922,4.922,0,0,0-5.064-3.189,5.086,5.086,0,0,0-4.877,3.189c-.938,2.063-1.5,5.44-1.5,9.941s.375,7.878,1.313,9.941a5,5,0,0,0,5.064,3.189,5.086,5.086,0,0,0,4.877-3.189,33.024,33.024,0,0,0,1.313-10.129m6.377,0a13.438,13.438,0,0,1-4.127,10.129A12.219,12.219,0,0,1,73.155,73.5a12.074,12.074,0,0,1-8.441-3.376A13.433,13.433,0,0,1,60.4,59.805a12.758,12.758,0,0,1,4.127-9.941A12.219,12.219,0,0,1,73.155,46.3,12.074,12.074,0,0,1,81.6,49.676,12.689,12.689,0,0,1,85.91,59.805" transform="translate(-28.326 -32.045)"/>
  <path id="Path_448" data-name="Path 448" d="M91.782,62.671V71.3a14.032,14.032,0,0,1-.938,6c-.938,1.5-2.626,2.251-5.252,2.251-2.438,0-4.314-.563-5.44-1.876a7.366,7.366,0,0,1-1.688-5.252V54.606H73.4v-.563a11.268,11.268,0,0,0,7.69-6A17.565,17.565,0,0,0,83.154,39.6h1.125V52.73h7.128v1.876H84.279V71.674a21.872,21.872,0,0,0,.188,4.314,2.819,2.819,0,0,0,2.814,2.438q2.532,0,3.376-2.814a29.366,29.366,0,0,0,.563-7.128V62.671h.563Z" transform="translate(-16.941 -37.912)"/>
  <path id="Path_449" data-name="Path 449" d="M105.9,72.275V59.52a9.657,9.657,0,0,0-.563-3.939,3.37,3.37,0,0,0-3.376-2.063q-2.532,0-4.5,3.376a18.854,18.854,0,0,0-2.063,6.94V76.4a4.164,4.164,0,0,0,.188,1.688c0,.188.375.188.563.375a11.954,11.954,0,0,0,1.688.375c.75,0,1.5.188,2.063.188v.563H83.2v-.563a17.162,17.162,0,0,0,3.189-.188,5.991,5.991,0,0,0,2.626-.563A3.006,3.006,0,0,0,89.39,76.4V42.451a1.433,1.433,0,0,0-.375-.938c-.375-.375-.563-.75-.75-.75a24.486,24.486,0,0,0-5.064-.375v-.563l12-1.125V60.833a13.108,13.108,0,0,1,1.876-4.877,5.957,5.957,0,0,1,4.314-3.189h2.063c3,0,5.064.75,6.565,2.438a6.858,6.858,0,0,1,1.688,4.689v12.38s-1.688,12,12.192,9.191a8.769,8.769,0,0,0,4.689-3.189c-2.438,5.627-11.067,7.5-16.319,5.064-6.94-3.376-6.19-8.816-6.377-11.067" transform="translate(-8.36 -38.7)"/>
  <path id="Path_450" data-name="Path 450" d="M114.493,66.182V57.929a3.479,3.479,0,0,1-2.251,1.313c-.938.188-1.876.188-2.814.375a4.5,4.5,0,0,0-2.814,2.063,10.3,10.3,0,0,0-1.313,5.252c0,2.438.188,4.127.75,4.877a2.449,2.449,0,0,0,2.251,1.313,6.24,6.24,0,0,0,4.314-2.063,7.9,7.9,0,0,0,1.876-4.877m.188-11.442V51.177c0-1.688-.188-2.814-.75-3.376s-1.688-.938-3.564-.938a7.439,7.439,0,0,0-3.751.75,3.444,3.444,0,0,0-2.063,2.251h.563a2.308,2.308,0,0,1,1.876.938,2.821,2.821,0,0,1,.75,2.063,3.2,3.2,0,0,1-3.189,3.189,4.415,4.415,0,0,1-1.5-.375,3.825,3.825,0,0,1-1.876-3,9.68,9.68,0,0,1,.375-2.063c.563-1.688,2.063-2.814,4.314-3.564a15.8,15.8,0,0,1,5.064-.75c3,0,5.44.563,6.94,1.688a4.652,4.652,0,0,1,2.063,3.939v13.88a25.544,25.544,0,0,0,.188,4.689c.375,1.5,1.125,2.063,2.251,2.063a2.206,2.206,0,0,0,2.251-1.688,16.516,16.516,0,0,0,.563-4.877V57.742h.75v9.191c0,2.438-.375,4.127-.938,4.877-.75,1.125-2.251,1.5-4.5,1.5a6.708,6.708,0,0,1-3.939-.938,5.682,5.682,0,0,1-2.063-3.751,7.734,7.734,0,0,1-3.939,4.127,12.891,12.891,0,0,1-4.127.563,7.477,7.477,0,0,1-4.5-1.313A5.377,5.377,0,0,1,99.3,66.933a7.305,7.305,0,0,1,2.626-5.627A10.849,10.849,0,0,1,108.3,58.68a18.563,18.563,0,0,0,5.064-.938c.938-.375,1.313-1.313,1.313-3" transform="translate(5.739 -32.045)"/>
  <path id="Path_451" data-name="Path 451" d="M122.928,40.3a3.566,3.566,0,0,1,2.438.938,3.106,3.106,0,0,1,.938,2.438,3.566,3.566,0,0,1-.938,2.438,3.106,3.106,0,0,1-2.438.938,3.566,3.566,0,0,1-2.438-.938,3.106,3.106,0,0,1-.938-2.438,3.566,3.566,0,0,1,.938-2.438,3.106,3.106,0,0,1,2.438-.938M126.3,51.554V75.188a4.164,4.164,0,0,0,.188,1.688c0,.188.188.188.563.375.938.375,2.626.375,5.44.375v.563H114.3v-.563a17.162,17.162,0,0,0,3.189-.188,5.991,5.991,0,0,0,2.626-.563A3.006,3.006,0,0,0,120.49,75V55.868c0-.75,0-1.313-.188-1.5-.375-.375-.563-.75-.75-.75a24.486,24.486,0,0,0-5.064-.375V52.68Z" transform="translate(18.875 -37.299)"/>
  <path id="Path_452" data-name="Path 452" d="M128.9,50.514c0-.75,0-1.313-.188-1.5-.375-.375-.563-.75-.75-.75a24.487,24.487,0,0,0-5.064-.375v-.563l12-.938v7.878a11.668,11.668,0,0,1,1.688-4.877,6.234,6.234,0,0,1,5.252-3.189,5.129,5.129,0,0,1,2.626.75,4,4,0,0,1,1.876,2.063,4.89,4.89,0,0,1,.563,2.063,3.37,3.37,0,0,1-2.063,3.376,2.781,2.781,0,0,1-1.313.188,3.012,3.012,0,0,1-2.063-.938,3.711,3.711,0,0,1-.938-2.626,3.9,3.9,0,0,1,.938-2.251,2.005,2.005,0,0,1,2.063-.938c-.188-.938-.938-1.313-2.251-1.313-1.125,0-2.438.938-3.564,2.626a15.594,15.594,0,0,0-2.438,8.628V69.459a4.163,4.163,0,0,0,.188,1.688c0,.188.188.188.563.375.938.375,2.626.375,5.44.375v.563H123.275V71.9a17.163,17.163,0,0,0,3.189-.188,4.693,4.693,0,0,0,2.438-.563,3.005,3.005,0,0,0,.375-1.876V50.514Z" transform="translate(26.406 -32.132)"/>
</svg>
