<svg id="lartisan" xmlns="http://www.w3.org/2000/svg" width="335" height="16.506" viewBox="0 0 335 16.506">
  <path id="Path_54" data-name="Path 54" d="M10.879,15.581H.375A.655.655,0,0,1,0,15.393V14.83c0-.188,0-.375.188-.375,1.125-.188,1.688-.563,1.688-1.688V3.2c0-1.125-.563-1.5-1.688-1.688A.689.689,0,0,1,0,.95V.388C0,.2.188.2.375.2h6.19c.188,0,.188.188.375.188V.95c0,.188,0,.375-.188.375-1.125.188-1.876.563-1.876,1.688v9.941A1,1,0,0,0,6,14.08c3,0,4.689-1.876,6-3.376.188-.188.188-.188.375-.188h.375c.188.188.375.188.375.375v.938a.689.689,0,0,1-.188.563c-.563.938-1.125,2.063-1.688,3a.655.655,0,0,1-.375.188" transform="translate(0 0.363)"/>
  <path id="Path_55" data-name="Path 55" d="M10.128,2.329c-.188-.375-.375-.563,0-.938L11.254.266a.837.837,0,0,1,.938,0L13.5,1.579a1.406,1.406,0,0,1,.188.938A10.268,10.268,0,0,1,10.5,7.768a.352.352,0,0,1-.563,0l-.375-.563a.352.352,0,0,1,0-.563c.938-.938,1.5-1.5,1.5-2.626a2.593,2.593,0,0,0-.938-1.688" transform="translate(8.253 0.297)"/>
  <path id="Path_56" data-name="Path 56" d="M22.178,10.991H17.489l-.563,1.876c-.188.75,0,1.313,1.125,1.5.188,0,.188.188.188.375v.563c0,.188-.188.188-.375.188H13.175c-.188,0-.188-.188-.375-.188v-.563c0-.188,0-.375.188-.375a2.706,2.706,0,0,0,2.251-1.688L19.74.488c0-.188.188-.188.375-.188h1.313c.188,0,.188.188.375.188L25.742,12.68a2.44,2.44,0,0,0,2.063,1.688c.188,0,.188.188.188.375v.563c0,.188-.188.188-.375.188h-6c-.188,0-.188-.188-.375-.188v-.563c0-.188,0-.375.188-.375,1.125-.188,1.313-.75,1.125-1.5Zm-4.314-1.5H21.8L19.928,3.676Z" transform="translate(11.209 0.45)"/>
  <path id="Path_57" data-name="Path 57" d="M28.452,12.68c0,1.125.75,1.5,1.876,1.688.188,0,.188.188.188.375v.563c0,.188-.188.188-.375.188H23.575c-.188,0-.188-.188-.375-.188v-.563c0-.188,0-.375.188-.375,1.125-.188,1.876-.563,1.876-1.688V3.114c0-1.125-.563-1.5-1.688-1.688-.188,0-.188-.188-.188-.375V.488c0-.188.188-.188.375-.188h6.565c3.189,0,5.815,1.5,5.815,4.5a3.739,3.739,0,0,1-2.814,3.376c1.125,1.688,3.189,4.877,6.565,6.753.188,0,.188.188.188.375l-.188.563c0,.188-.188.188-.375.188a16.111,16.111,0,0,1-5.252-3.939c-2.063-2.063-3.564-3-5.627-3V12.68Zm-.188-5.44h1.313c1.876,0,3.751-.75,3.751-2.814A2.955,2.955,0,0,0,30.14,1.238h-.563c-.75,0-1.313.375-1.313,1.125Z" transform="translate(20.316 0.45)"/>
  <path id="Path_58" data-name="Path 58" d="M42.941,13.03c0,1.125.75,1.5,1.876,1.688.188,0,.188.188.188.375v.563c0,.188-.188.188-.375.188H38.064c-.188,0-.188-.188-.375-.188v-.563c0-.188,0-.375.188-.375,1.125-.188,1.876-.563,1.876-1.688V1.776H38.627a4.885,4.885,0,0,0-4.5,2.063c-.188.188-.188.188-.375.188h-.563C33,4.027,33,3.839,33,3.651L34.125.088c0-.188.188-.188.375-.188h.563c.188,0,.188,0,.375.188A.689.689,0,0,0,36,.275h12c.375,0,.563-.188.75-.188h1.313c.188,0,.188.188.188.375L49.131,4.027c0,.188-.188.188-.375.188h-.375a.655.655,0,0,1-.375-.188C47.63,2.9,46.88,1.963,44.067,1.963H42.941Z" transform="translate(28.898 0.1)"/>
  <path id="Path_59" data-name="Path 59" d="M49.564,12.68c0,1.125.75,1.5,1.688,1.688.188,0,.188.188.188.375v.563c0,.188-.188.188-.375.188h-6.19c-.188,0-.188-.188-.375-.188v-.563c0-.188,0-.375.188-.375,1.125-.188,1.876-.563,1.876-1.688V3.114c0-1.125-.75-1.5-1.688-1.688-.188,0-.188-.188-.188-.375V.488c0-.188.188-.188.375-.188h6.19c.188,0,.188.188.375.188V1.05c0,.188,0,.375-.188.375-1.125.188-1.876.563-1.876,1.688Z" transform="translate(38.969 0.45)"/>
  <path id="Path_60" data-name="Path 60" d="M51.1,15.481V11.167a.4.4,0,0,1,.375-.375h.563a.655.655,0,0,1,.375.188,5.148,5.148,0,0,0,4.877,3.376,2.191,2.191,0,0,0,2.438-2.063A2.89,2.89,0,0,0,58.04,9.854a19.621,19.621,0,0,1-4.314-2.438c-1.5-1.125-2.251-2.063-2.251-3.751,0-2.251,2.063-3.564,4.5-3.564,1.688,0,2.626.375,3.376.375.563,0,.563-.188.938-.188h.375c.188,0,.188,0,.188.188V3.851a.4.4,0,0,1-.375.375h-.188a.655.655,0,0,1-.375-.188,4.35,4.35,0,0,0-3.939-2.626c-1.125,0-2.251.75-2.251,1.688a2.711,2.711,0,0,0,1.313,1.876,47.185,47.185,0,0,0,4.5,2.814q2.814,1.407,2.814,3.939c0,2.438-2.251,3.939-5.064,3.939-1.876,0-2.814-.188-3.564-.188H51.475c-.188.188-.375.188-.375,0" transform="translate(44.748 0.275)"/>
  <path id="Path_61" data-name="Path 61" d="M68.778,10.991H64.089l-.563,1.876c-.188.75,0,1.313,1.125,1.5.188,0,.188.188.188.375v.563c0,.188-.188.188-.375.188H59.775c-.188,0-.188-.188-.375-.188v-.563c0-.188,0-.375.188-.375a2.706,2.706,0,0,0,2.251-1.688L66.34.488c0-.188.188-.188.375-.188h1.313c.188,0,.188.188.375.188L72.342,12.68a2.44,2.44,0,0,0,2.063,1.688c.188,0,.188.188.188.375v.563c0,.188-.188.188-.375.188h-6c-.188,0-.188-.188-.375-.188l.188-.563c0-.188,0-.375.188-.375,1.125-.188,1.313-.75,1.125-1.5Zm-4.314-1.5H68.4L66.528,3.676Z" transform="translate(52.017 0.45)"/>
  <path id="Path_62" data-name="Path 62" d="M84.806,15.668a.655.655,0,0,1-.375-.188l-10.879-12v9.191c0,1.125.563,1.5,1.688,1.688.188,0,.188.188.188.375v.563c0,.188-.188.188-.375.188H70.175c-.188,0-.188-.188-.375-.188V14.73c0-.188,0-.375.188-.375,1.125-.188,1.688-.563,1.688-1.688V3.1a1.724,1.724,0,0,0-1.688-1.876c-.188,0-.188-.188-.188-.375V.288C69.8.1,69.988.1,70.175.1H74.3c.188,0,.188,0,.375.188L84.055,10.6V2.914c0-1.125-.563-1.5-1.688-1.688-.188,0-.188-.188-.188-.375V.288c0-.188.188-.188.375-.188h4.877c.188,0,.188.188.375.188V.85c0,.188,0,.375-.188.375-1.125.188-1.688.563-1.688,1.688V15.106c0,.188-.188.188-.375.188h-.75Z" transform="translate(61.124 0.275)"/>
  <path id="Path_63" data-name="Path 63" d="M94,.2c3.189,0,5.815,1.5,5.815,4.5S97.379,9.391,94.19,9.391H91.94v3.376c0,1.125.938,1.5,2.063,1.688.188,0,.188.188.188.375v.563c0,.188-.188.188-.375.188h-6.94c-.188,0-.188-.188-.375-.188V14.83c0-.188,0-.375.188-.375,1.125-.188,1.876-.563,1.876-1.688V3.2c0-1.125-.563-1.5-1.688-1.688-.188,0-.188-.188-.188-.375V.575c0-.188.188-.188.375-.188H94Zm-.938,1.125a1.185,1.185,0,0,0-1.313,1.313V7.89h1.876C95.691,7.89,97,6.765,97,4.7a3.348,3.348,0,0,0-3.376-3.376h-.563Z" transform="translate(75.748 0.363)"/>
  <path id="Path_64" data-name="Path 64" d="M104.066,10.991H99.189l-.563,1.876c-.188.75,0,1.313,1.125,1.5.188,0,.188.188.188.375v.563c0,.188-.188.188-.375.188H94.875c-.188,0-.188-.188-.375-.188v-.563c0-.188,0-.375.188-.375a2.706,2.706,0,0,0,2.251-1.688L101.44.488c0-.188.188-.188.375-.188h1.313c.188,0,.188.188.375.188l3.939,12.192a2.44,2.44,0,0,0,2.063,1.688c.188,0,.188.188.188.375v.563c0,.188-.188.188-.375.188h-6c-.188,0-.188-.188-.375-.188v-.563c0-.188,0-.375.188-.375,1.125-.188,1.313-.75,1.125-1.5Zm-4.314-1.5h3.939l-1.876-5.815Z" transform="translate(82.754 0.45)"/>
  <path id="Path_65" data-name="Path 65" d="M110.252,12.68c0,1.125.75,1.5,1.876,1.688.188,0,.188.188.188.375v.563c0,.188-.188.188-.375.188h-6.565c-.188,0-.188-.188-.375-.188v-.563c0-.188,0-.375.188-.375,1.125-.188,1.876-.563,1.876-1.688V3.114c0-1.125-.563-1.5-1.688-1.688-.188,0-.188-.188-.188-.375V.488c0-.188.188-.188.375-.188h6.377c3.189,0,5.815,1.5,5.815,4.5a3.739,3.739,0,0,1-2.814,3.376c1.125,1.688,3.189,4.877,6.377,6.753.188,0,.188.188.188.375l-.188.563c0,.188-.188.188-.375.188a16.111,16.111,0,0,1-5.252-3.939c-2.063-2.063-3.376-3-5.627-3V12.68Zm-.188-5.44h1.313c1.876,0,3.751-.75,3.751-2.814a2.955,2.955,0,0,0-3.189-3.189h-.563c-.75,0-1.313.375-1.313,1.125Z" transform="translate(91.948 0.45)"/>
  <path id="Path_66" data-name="Path 66" d="M121.552,12.68c0,1.125.75,1.5,1.876,1.688.188,0,.188.188.188.375v.563c0,.188-.188.188-.375.188h-6.565c-.188,0-.188-.188-.375-.188v-.563c0-.188,0-.375.188-.375,1.125-.188,1.876-.563,1.876-1.688V3.114c0-1.125-.563-1.5-1.688-1.688-.188,0-.188-.188-.188-.375V.488c0-.188.188-.188.375-.188H128.68c.188,0,.188.188.375.188V.863c0,.188,0,.375-.188.375A12.615,12.615,0,0,1,127.554,3.3c0,.188-.188.188-.375.188H126.8c-.188,0-.188-.188-.375-.188a3.3,3.3,0,0,0-3.189-2.063H122.3a1,1,0,0,0-1.125,1.125V7.053h2.251a1.9,1.9,0,0,0,2.063-1.5c0-.188.188-.188.375-.188h.563c.188,0,.188.188.188.375v4.314c0,.188-.188.188-.188.375h-.563c-.188,0-.188,0-.375-.188a2.041,2.041,0,0,0-2.063-1.688h-2.063V12.68Z" transform="translate(101.844 0.45)"/>
  <path id="Path_67" data-name="Path 67" d="M139.105,10.891c0,3.376-2.438,5.064-5.815,5.064s-5.815-1.688-5.815-5.064V3.014c0-1.125-.563-1.5-1.688-1.688-.188,0-.188-.188-.188-.375V.388c0-.188.188-.188.375-.188h6c.188,0,.188.188.375.188V.95c0,.188,0,.375-.188.375-1.125.188-1.688.563-1.688,1.688v7.878a3.459,3.459,0,0,0,3.751,3.376c2.438,0,3.751-1.5,3.751-3.376V3.014c0-1.125-.563-1.5-1.688-1.688-.188,0-.188-.188-.188-.375V.388c0-.188.188-.188.375-.188h4.689c.188,0,.188.188.375.188V.95c0,.188,0,.375-.188.375-1.125.188-1.688.563-1.688,1.688v7.878Z" transform="translate(109.988 0.363)"/>
  <path id="Path_68" data-name="Path 68" d="M146.516,15.581c0,.188-.188.188-.375.188h-.75a.655.655,0,0,1-.375-.188L139.951,3.951v8.816c0,1.125.563,1.5,1.688,1.688.188,0,.188.188.188.375v.563c0,.188-.188.188-.375.188h-4.877c-.188,0-.188-.188-.375-.188V14.83c0-.188,0-.375.188-.375,1.125-.188,1.688-.563,1.688-1.688V3.2c0-1.125-.563-1.5-1.688-1.688-.188,0-.188-.188-.188-.375V.575c0-.188.188-.188.375-.188h6.565c.188,0,.188.188.375.188v.563c0,.188,0,.375-.188.375-1.125.188-1.313.75-1.125,1.313l4.127,9.566,3.751-9.566c.188-.563,0-1.313-1.125-1.5-.188,0-.188-.188-.188-.375V.388c0-.188.188-.188.375-.188h6.565c.188,0,.188.188.375.188V.95c0,.188,0,.375-.188.375-1.125.188-1.688.563-1.688,1.688V12.58c0,1.125.563,1.5,1.688,1.688.188,0,.188.188.188.375v.563c0,.188-.188.188-.375.188h-6c-.188,0-.188-.188-.375-.188v-.563c0-.188,0-.375.188-.375,1.125-.188,1.688-.563,1.688-1.688V3.764Z" transform="translate(119.27 0.363)"/>
  <path id="Path_69" data-name="Path 69" d="M149.775,15.493c-.188,0-.188-.188-.375-.188v-.563c0-.188,0-.375.188-.375,1.125-.188,1.688-.563,1.688-1.688V3.114c0-1.125-.563-1.5-1.688-1.688-.188,0-.188-.188-.188-.375V.488c0-.188.188-.188.375-.188h11.817c.188,0,.188.188.375.188V.863c0,.188,0,.375-.188.375A19.768,19.768,0,0,0,160.467,3.3c0,.188-.188.188-.375.188h-.375c-.188,0-.188-.188-.375-.188a3.519,3.519,0,0,0-3.189-2.063h-.75a1,1,0,0,0-1.125,1.125V7.053h2.438a1.7,1.7,0,0,0,1.876-1.5c0-.188.188-.188.375-.188h.563c.188,0,.188.188.188.375V9.866c0,.188-.188.188-.188.375h-.563c-.188,0-.188,0-.375-.188a1.7,1.7,0,0,0-1.876-1.5h-2.438v4.689c0,.75.375,1.125,1.313,1.125h.75c3.189,0,4.5-1.5,6-3.751.188-.188.188-.188.375-.188h.563a.184.184,0,0,1,.188.188v.75c-.375,1.125-.75,2.626-1.125,3.939,0,.188-.188.188-.375.188H149.775Z" transform="translate(130.83 0.45)"/>
  <path id="Path_70" data-name="Path 70" d="M172.605,10.891c0,3.376-2.438,5.064-5.815,5.064s-5.815-1.688-5.815-5.064V3.014c0-1.125-.563-1.5-1.688-1.688-.188,0-.188-.188-.188-.375V.388c0-.188.188-.188.375-.188h6c.188,0,.188.188.375.188V.95c0,.188,0,.375-.188.375-1.125.188-1.688.563-1.688,1.688v7.878a3.459,3.459,0,0,0,3.751,3.376c2.438,0,3.751-1.5,3.751-3.376V3.014c0-1.125-.563-1.5-1.688-1.688-.188,0-.188-.188-.188-.375V.388c0-.188.188-.188.375-.188h4.689c.188,0,.188.188.375.188V.95c0,.188,0,.375-.188.375-1.125.188-1.688.563-1.688,1.688v7.878Z" transform="translate(139.324 0.363)"/>
  <path id="Path_71" data-name="Path 71" d="M174.864,12.68c0,1.125.75,1.5,1.876,1.688.188,0,.188.188.188.375v.563c0,.188-.188.188-.375.188h-6.377c-.188,0-.188-.188-.375-.188v-.563c0-.188,0-.375.188-.375,1.125-.188,1.876-.563,1.876-1.688V3.114c0-1.125-.563-1.5-1.688-1.688-.188,0-.188-.188-.188-.375V.488c0-.188.188-.188.375-.188h6.377c3.189,0,5.815,1.5,5.815,4.5a3.739,3.739,0,0,1-2.814,3.376c1.125,1.688,3.189,4.877,6.377,6.753.188,0,.188.188.188.375l-.188.563c0,.188-.188.188-.375.188a16.111,16.111,0,0,1-5.252-3.939c-2.063-2.063-3.376-3-5.627-3Zm-.188-5.44h1.313c1.876,0,3.751-.75,3.751-2.814a2.955,2.955,0,0,0-3.189-3.189h-.563c-.75,0-1.313.375-1.313,1.125Z" transform="translate(148.694 0.45)"/>
</svg>
