<svg id="laura-mercier" xmlns="http://www.w3.org/2000/svg" width="226.772" height="36.764" viewBox="0 0 226.772 36.764">
  <path id="Path_5" data-name="Path 5" d="M55.352,212.564H51.038v-2.626h4.314c.938,0,1.688.375,1.688,1.313s-.75,1.313-1.688,1.313m0-3.564H50.288c-.188,0-.188,0-.188.188v6.94c0,.188,0,.188.188.188h.563c.188,0,.188,0,.188-.188V213.5h4.314c1.876,0,2.814-1.125,2.814-2.251,0-1.313-.938-2.251-2.814-2.251" transform="translate(-10.335 -179.927)"/>
  <path id="Path_6" data-name="Path 6" d="M58.014,213.5l1.876-3.376,1.876,3.376Zm2.626-4.314c0-.188-.188-.188-.375-.188h-.75c-.188,0-.375,0-.375.188l-3.939,6.94v.188c0,.188,0,.188.188.188h.563c.188,0,.188,0,.375-.188l.938-1.876h5.064l.938,1.876c.188.188.188.188.375.188H64.2c.188,0,.188,0,.188-.188v-.188Z" transform="translate(-5.869 -179.927)"/>
  <path id="Path_7" data-name="Path 7" d="M63.025,212.564v-2.626H67.34c.938,0,1.688.375,1.688,1.313,0,.75-.563,1.313-1.688,1.313Zm4.877.938a2.237,2.237,0,0,0,2.063-2.251q0-2.251-2.814-2.251H62.088c-.188,0-.188,0-.188.188v6.94c0,.188,0,.188.188.188h.563c.188,0,.188,0,.188-.188V213.5H66.4l2.438,2.814c0,.188.188.188.375.188h.75c.188,0,.188,0,.188-.188l-.188-.188Z" transform="translate(-0.002 -179.927)"/>
  <path id="Path_8" data-name="Path 8" d="M69.15,209h-.563c-.188,0-.188,0-.188.188v6.94c0,.188,0,.188.188.188h.563c.188,0,.188,0,.188-.188v-6.94c.188,0,0-.188-.188-.188" transform="translate(5.69 -179.927)"/>
  <path id="Path_9" data-name="Path 9" d="M75.214,212.276c-1.5-.188-3-.375-3-1.125s1.5-1.313,2.626-1.313a5.114,5.114,0,0,1,3,.938l.188.188H78.4c.188-.188.375-.375.375-.563l-.188-.375a5.681,5.681,0,0,0-3.564-1.125c-2.251,0-3.751.938-3.751,2.251,0,1.688,2.251,1.876,3.939,2.063,1.5.188,3,.375,3,1.125,0,.938-1.688,1.5-3,1.5a4.654,4.654,0,0,1-3.376-1.313l-.188-.188h-.188l-.188.188c-.188.188-.375.188-.375.563l.188.375a6.3,6.3,0,0,0,3.939,1.313c2.063,0,3.939-.75,3.939-2.438,0-1.313-1.313-1.876-3.751-2.063" transform="translate(7.879 -180.014)"/>
  <path id="Path_10" data-name="Path 10" d="M81.263,209.1h-.375c-.188,0-.188,0-.188.188v7.128c0,.188,0,.188.188.188h.375c.188,0,.188,0,.188-.188v-7.128c.188,0,0-.188-.188-.188" transform="translate(16.461 -179.839)"/>
  <path id="Path_11" data-name="Path 11" d="M94,209.088H93.44c-.188,0-.188,0-.188.188V214.9l-5.627-5.815c-.188-.188-.188-.188-.375-.188h-.563c-.188,0-.188,0-.188.188v6.94c0,.188,0,.188.188.188h.563c.188,0,.188,0,.188-.188V210.4l5.627,5.815c.188.188.188.188.375.188H94c.188,0,.188,0,.188-.188v-6.94a.184.184,0,0,0-.188-.188" transform="translate(21.54 -180.014)"/>
  <path id="Path_12" data-name="Path 12" d="M99.14,209H92.388c-.188,0-.188,0-.188.188v6.94c0,.188,0,.188.188.188H99.14c.188,0,.188,0,.188-.188v-.563a.184.184,0,0,0-.188-.188h-6v-2.251h4.314c.188,0,.188,0,.188-.188v-.563a.184.184,0,0,0-.188-.188H93.138v-2.251h6c.188,0,.188,0,.188-.188v-.563c.188,0,0-.188-.188-.188" transform="translate(26.532 -179.927)"/>
  <path id="Path_13" data-name="Path 13" d="M109.129,209h-.563c-.188,0-.188,0-.375.188L105.941,215l-1.876-5.815c0-.188-.188-.188-.375-.188h-.563c-.188,0-.375,0-.375.188L100.876,215l-2.251-5.815c0-.188-.188-.188-.375-.188h-.563c-.188,0-.188,0-.188.188v.188l2.814,6.94c0,.188.188.188.375.188h.563c.188,0,.375,0,.375-.188l1.876-5.627,1.876,5.627c0,.188.188.188.375.188h.563c.188,0,.375,0,.375-.188l2.814-6.94v-.188c-.188,0-.188-.188-.375-.188" transform="translate(31.173 -179.927)"/>
  <path id="Path_14" data-name="Path 14" d="M115.616,209h-.75l-.375.188-3.189,3.376-3.189-3.376-.375-.188h-.75c-.188,0-.188,0-.188.188v.188l3.939,4.126v2.626c0,.188,0,.188.188.188h.563c.188,0,.188,0,.188-.188V213.5l3.939-4.126V209Z" transform="translate(39.317 -179.927)"/>
  <path id="Path_15" data-name="Path 15" d="M116.614,215.84c-1.876,0-3.189-1.125-3.189-2.814a2.975,2.975,0,0,1,3.189-2.814c1.876,0,3.376,1.125,3.376,2.814a3.164,3.164,0,0,1-3.376,2.814m0-6.94a3.955,3.955,0,1,0,4.314,3.939c.188-2.251-1.876-3.939-4.314-3.939" transform="translate(44.133 -180.014)"/>
  <path id="Path_16" data-name="Path 16" d="M119.338,212.564v-2.626h3.939c.938,0,1.688.375,1.688,1.313,0,.75-.563,1.313-1.688,1.313Zm4.689.938a2.237,2.237,0,0,0,2.063-2.251q0-2.251-2.814-2.251h-4.689c-.188,0-.188,0-.188.188v6.94c0,.188,0,.188.188.188h.563c.188,0,.188,0,.188-.188V213.5h3.189l2.438,2.814c0,.188.188.188.375.188h.75c.188,0,.188,0,.188-.188l-.188-.188Z" transform="translate(49.475 -179.927)"/>
  <path id="Path_17" data-name="Path 17" d="M128.439,212l3.376-2.626v-.188l-.188-.188h-.938c-.188,0-.375,0-.375.188l-4.877,3.751v-3.564a.184.184,0,0,0-.188-.188h-.563c-.188,0-.188,0-.188.188v6.94c0,.188,0,.188.188.188h.563c.188,0,.188,0,.188-.188v-2.063l2.063-1.688,3.376,3.751c0,.188.188.188.375.188H132c.188,0,.188,0,.188-.188v-.188Z" transform="translate(54.817 -179.927)"/>
  <path id="Path_18" data-name="Path 18" d="M134.619,210.569a9.945,9.945,0,0,1-5.252,1.313,7.518,7.518,0,0,1-7.5-7.5c0-4.877,3.189-7.5,7.5-7.5a9.945,9.945,0,0,1,5.252,1.313v-3.751a11.931,11.931,0,0,0-5.252-.938A11.015,11.015,0,0,0,118.3,204.191a10.7,10.7,0,0,0,11.067,10.879,11.931,11.931,0,0,0,5.252-.938Z" transform="translate(49.388 -193.5)"/>
  <path id="Path_19" data-name="Path 19" d="M57.816,215.071c5.627,0,8.816-4.314,8.816-9.941V193.688H63.255v11.442c0,3.751-1.688,6.752-5.44,6.752s-5.44-2.814-5.44-6.752V193.5H49v11.442c0,5.815,3,10.129,8.816,10.129" transform="translate(-11.298 -193.5)"/>
  <path id="Path_20" data-name="Path 20" d="M32.276,193.5H28.9v21.571H42.03v-3.376H32.276Z" transform="translate(-28.9 -193.5)"/>
  <rect id="Rectangle_1" data-name="Rectangle 1" width="3.376" height="21.383" transform="translate(187.382 0)"/>
  <path id="Path_21" data-name="Path 21" d="M132.3,215.071h13.317v-3.376H135.489V205.88h10.129v-3.189H135.489v-5.815h10.129V193.5H132.3Z" transform="translate(61.647 -193.5)"/>
  <path id="Path_22" data-name="Path 22" d="M112.764,203.916v-7.128h4.877c2.438,0,3.751,1.688,3.751,3.939,0,1.876-1.876,3.189-3.751,3.189Zm11.817-3.189a7,7,0,0,0-7.128-7.128H109.2v21.383h3.376v-7.69h3.751l4.877,7.69h4.314l-5.252-8.066c3-1.5,4.314-3.376,4.314-6.19" transform="translate(41.419 -193.412)"/>
  <path id="Path_23" data-name="Path 23" d="M63.376,203.916v-7.128h4.877c2.438,0,3.751,1.688,3.751,3.939,0,1.876-1.876,3.189-3.751,3.189Zm7.69,3c2.814-1.5,4.314-3.376,4.314-6.19a7,7,0,0,0-7.128-7.128H60v21.383h3.376v-7.69h3.751L72,214.983h4.314Z" transform="translate(-1.666 -193.412)"/>
  <path id="Path_24" data-name="Path 24" d="M144.476,203.916v-7.128h4.877c2.438,0,3.751,1.688,3.751,3.939,0,1.876-1.876,3.189-3.751,3.189Zm7.69,3c2.814-1.5,4.314-3.376,4.314-6.19a7,7,0,0,0-7.128-7.128H141.1v21.383h3.376v-7.69h3.751l4.877,7.69h4.314Z" transform="translate(69.354 -193.412)"/>
  <path id="Path_25" data-name="Path 25" d="M113.717,211.694h-9.941V205.88h9.941v-3.189h-9.941v-5.815h9.941V193.5H100.4v21.571h13.317Z" transform="translate(33.713 -193.5)"/>
  <path id="Path_26" data-name="Path 26" d="M44.028,207.38l4.314-10.5,4.314,10.5Zm2.438-13.88L36.9,215.071h3.751l1.876-4.314H54.156l1.876,4.314h3.751L50.217,193.5Z" transform="translate(-21.894 -193.5)"/>
  <path id="Path_27" data-name="Path 27" d="M76.34,207.38l4.314-10.5,4.314,10.5Zm2.626-13.88L69.4,215.071h3.751l1.876-4.314H86.656l1.876,4.314h3.751l-9.566-21.383H78.966Z" transform="translate(6.566 -193.5)"/>
  <path id="Path_28" data-name="Path 28" d="M109.284,215.071V193.688h-3L97.842,207.38,89.214,193.5H86.4v21.571h3.376V200.815L96.9,211.694H98.78l7.128-10.879v14.255Z" transform="translate(21.453 -193.5)"/>
</svg>
