<svg id="morphe" xmlns="http://www.w3.org/2000/svg" width="207.828" height="23.446" viewBox="0 0 207.828 23.446">
  <g id="Group_9" data-name="Group 9" transform="translate(0)">
    <g id="Group_8" data-name="Group 8">
      <g id="Group_6" data-name="Group 6">
        <path id="Path_40" data-name="Path 40" d="M53.59,614.995V598.3c0-2.063.563-2.626,2.063-2.626V595.3h-7.69v1.313h0v18.569c0,2.251-.563,3.189-2.063,3.189v.375H56.029v-.375C54.341,618,53.59,617.246,53.59,614.995Z" transform="translate(-23.579 -595.3)"/>
        <path id="Path_41" data-name="Path 41" d="M44.129,595.3H35.313v.375c.938,0,2.251.375,3.564,2.626V609.93c0,2.251-.75,8.066-4.877,8.066v.375H44.129V618c-4.127,0-4.877-6-4.877-8.066V598.864l9.941,19.882h.375l2.814-7.128Z" transform="translate(-34 -595.3)"/>
      </g>
      <g id="Group_7" data-name="Group 7" transform="translate(45.204 0)">
        <path id="Path_42" data-name="Path 42" d="M69.542,618.746c-7.128,0-11.442-5.064-11.442-11.629,0-6.377,4.314-11.817,11.442-11.817s11.442,5.439,11.442,11.817C80.984,613.682,76.669,618.746,69.542,618.746Zm0-23.071c-3.939,0-4.877,2.626-4.877,11.442,0,9,.938,11.067,4.877,11.067,3.751,0,4.689-2.251,4.689-11.067S73.293,595.675,69.542,595.675Z" transform="translate(-58.1 -595.3)"/>
        <path id="Path_43" data-name="Path 43" d="M100.734,618.2H96.045c-4.127,0-3.939-.75-5.44-7.315a4.609,4.609,0,0,0-4.314-3.188h-1.5v6.752c0,2.626.563,3.376,1.876,3.376v.375H77.1v-.375c1.313,0,2.063-.563,2.063-3.376V598.689c0-2.063-.563-2.813-2.063-2.813V595.5h8.628c6.377,0,11.629.75,11.629,6.19,0,4.5-3.564,5.627-6.94,5.814,3-.187,5.252.938,6.753,6.94a4.757,4.757,0,0,0,3.564,3.564ZM85.728,595.875H84.79v11.442h.938c3.751,0,5.252,0,5.252-5.815S89.292,595.875,85.728,595.875Z" transform="translate(-41.462 -595.125)"/>
        <path id="Path_44" data-name="Path 44" d="M104.49,613.882c0,3.939,1.688,3.939,3.189,3.939v.375H96.988v-.375c1.313,0,1.876-1.126,1.876-3.376V599.064c0-2.063-.563-3.189-2.063-3.189V595.5h8.253c6.377,0,12,.75,12,6.565s-5.44,6.565-12,6.565h-.563Zm.563-5.815c3.939,0,5.44-.187,5.44-6.19,0-6.19-1.688-6.19-5.44-6.19h-.563V607.88h.563Z" transform="translate(-24.21 -595.125)"/>
        <path id="Path_45" data-name="Path 45" d="M135.47,614.444c0,1.5-.188,3.189,1.5,3.376v.375h-7.5v-.375c.938-.188.75-1.688.75-3.376V607.5h-8.066v6.94c0,1.5-.188,3.189.75,3.376v.375h-7.5v-.375c1.688-.188,1.5-1.688,1.5-3.376V599.251c0-1.5.188-3.376-1.5-3.376V595.5h7.5v.375c-.938.188-.75,2.063-.75,3.376v7.878h7.878v-7.878c0-1.5.188-3.376-.75-3.376V595.5h7.5v.375c-1.5.188-1.5,2.063-1.5,3.376v15.193Z" transform="translate(-7.922 -595.125)"/>
        <path id="Path_46" data-name="Path 46" d="M153.469,611.444V618.2H134.9v-.375c1.313,0,1.876-1.876,1.876-3.939V600c0-2.063-.375-4.126-1.876-4.126V595.5h18.194v6.377h-.375c-.375-6-9.191-6-9.191-6H142.4v10.691h1.876s4.127,0,4.5-3.564h.375v7.69h-.375c-.375-3.564-4.5-3.564-4.5-3.564H142.4v10.879h1.125s9,.188,9.566-6.377h.375Z" transform="translate(9.154 -595.125)"/>
      </g>
    </g>
  </g>
</svg>
