<svg id="nars" xmlns="http://www.w3.org/2000/svg" width="121.358" height="51.957" viewBox="0 0 121.358 51.957">
  <path id="Path_1" data-name="Path 1" d="M58.5,639.976h-.188v48.768H57V638.1h1.876L93.2,687.056h.188V638.1H94.7v50.644H92.638Z" transform="translate(-57 -636.787)"/>
  <path id="Path_2" data-name="Path 2" d="M105.237,669.987,93.608,639.6H93.42l-12,30.386Zm-24.2,1.313L74.1,688.744H72.6L93.045,638.1h1.688l19.695,50.644H112.74L105.987,671.3Z" transform="translate(-43.339 -636.787)"/>
  <path id="Path_3" data-name="Path 3" d="M91.613,663.047h18.194c7.128,0,13.88-3.751,13.88-12.379,0-6.94-3.939-11.067-13.13-11.067H91.613Zm0,25.7H90.3V638.1h19.882c10.129,0,14.63,4.127,15.006,12.567.188,6.565-3.564,11.254-10.5,12.755v.188c8.253,1.125,9.566,5.815,9.566,13.692,0,3,.188,8.816,1.125,10.129h-1.5c-.75-2.063-.938-7.128-.938-10.316,0-8.065-1.688-12.755-12.942-12.755H91.613Z" transform="translate(-27.839 -636.787)"/>
  <path id="Path_4" data-name="Path 4" d="M136.439,652.593c-.375-10.129-7.128-13.693-15.943-13.693-6.94,0-15.381,2.438-15.381,11.254,0,9,8.441,9.941,16.881,12,9.191,2.438,16.694,3.376,16.694,13.693,0,9.378-8.816,13.317-17.256,13.317-11.067,0-19.32-5.064-19.132-17.632h1.313c0,11.817,7.315,16.131,17.632,16.131,7.69,0,15.943-3.376,15.943-12,0-9.941-9.566-10.879-17.069-12.567-7.878-1.876-16.506-3.376-16.506-12.942,0-9.754,8.816-12.755,16.694-12.755,9.566,0,16.694,3.939,17.256,15.006h-1.125Z" transform="translate(-17.332 -637.4)"/>
</svg>
