<svg id="rodial" xmlns="http://www.w3.org/2000/svg" width="125.109" height="41.828" viewBox="0 0 125.109 41.828">
  <path id="Path_411" data-name="Path 411" d="M81.322,282.99,67.629,263.3c6.94.188,12-3.564,12-10.879a9.726,9.726,0,0,0-4.127-8.253c-2.814-2.063-6.19-2.063-9.566-2.063H56v40.89h2.626V244.538H65c2.438,0,5.252-.188,7.5.938a6.869,6.869,0,0,1,4.5,6.753,8.088,8.088,0,0,1-3,6.565c-2.063,1.876-4.689,1.876-7.315,1.876H63.128L78.133,282.8h3.189Z" transform="translate(-56 -241.912)"/>
  <path id="Path_412" data-name="Path 412" d="M82.33,252.251a10.977,10.977,0,1,1-10.691,11.067c0-5.815,4.689-11.067,10.691-11.067M82.517,250a13.319,13.319,0,1,0,13.505,13.317A13.408,13.408,0,0,0,82.517,250" transform="translate(-44.441 -234.994)"/>
  <path id="Path_413" data-name="Path 413" d="M97.255,281.3c-6.19,0-10.129-5.252-10.129-11.067,0-5.439,4.127-10.879,9.941-10.879,6.19,0,10.129,4.689,10.129,10.5,0,6-3.376,11.442-9.941,11.442m9.754,1.688h2.438V242.1h-2.438v19.882h-.188a11.911,11.911,0,0,0-9.754-4.877c-7.69,0-12.567,5.627-12.567,13.13s4.877,13.505,12.567,13.505c3.751,0,7.878-1.876,9.754-5.064h.188Z" transform="translate(-31.043 -241.912)"/>
  <path id="Path_414" data-name="Path 414" d="M103.938,283.078H101.5v-25.51h2.438Zm0-33.575H101.5V242h2.438Z" transform="translate(-16.156 -242)"/>
  <path id="Path_415" data-name="Path 415" d="M117.292,252.163c6.19,0,10.129,4.689,10.129,10.5,0,6.19-3.564,11.442-10.129,11.442-6.19,0-10.129-5.252-10.129-11.067.375-5.44,4.314-10.879,10.129-10.879m12.567-1.688h-2.438v4.5h-.188a11.429,11.429,0,0,0-9.754-4.877c-7.69,0-12.38,5.627-12.38,13.13s4.877,13.505,12.567,13.505c3.751,0,7.878-1.876,9.754-5.064h.188v4.5h2.438v-25.7Z" transform="translate(-13.003 -234.907)"/>
  <rect id="Rectangle_14" data-name="Rectangle 14" width="2.438" height="40.89" transform="translate(122.671 0.188)"/>
</svg>
