<svg id="shiseido" xmlns="http://www.w3.org/2000/svg" width="196.761" height="33.596" viewBox="0 0 196.761 33.596">
  <path id="Path_72" data-name="Path 72" d="M108.411,149.151l.563-1.313a9.973,9.973,0,0,0-3.939-.938c-4.5.188-7.5,3.189-9.379,6.19a33.836,33.836,0,0,0-3.189,6.94c-.75,2.251-2.063,6-2.626,7.315-1.688,3.939-3,5.627-6.377,5.627-2.063,0-4.314-1.876-4.314-1.876l-.75,1.125a9.1,9.1,0,0,0,6,2.251,9.618,9.618,0,0,0,8.441-4.877,42.9,42.9,0,0,0,3.751-8.253c1.125-3,2.063-6.753,3.189-9.191,1.313-2.438,3.189-3.939,5.627-3.939a18.87,18.87,0,0,1,3,.938" transform="translate(-0.558 -142.76)"/>
  <path id="Path_73" data-name="Path 73" d="M84.918,146.394a13.757,13.757,0,0,0-7.69-1.688c-5.815.188-10.691,4.127-13.317,8.065a37.307,37.307,0,0,0-4.127,8.816c-.75,1.876-1.876,4.689-2.814,6.94-1.876,4.314-5.064,8.066-10.129,7.69a15.58,15.58,0,0,1-8.816-4.127L36.9,173.4a16,16,0,0,0,10.879,4.877c5.064.188,10.879-3,13.693-7.69a48.8,48.8,0,0,0,3.189-7.315,67.018,67.018,0,0,1,3.189-9.379c1.313-2.438,4.689-6.94,10.129-7.128a13.97,13.97,0,0,1,6.377,1.5Z" transform="translate(-36.9 -144.693)"/>
  <path id="Path_74" data-name="Path 74" d="M112.956,171.872H100.2V160.805h11.629v-2.063H100.2v-9.566h12.755V147.3H95.7v26.447h17.256Z" transform="translate(14.591 -142.41)"/>
  <rect id="Rectangle_3" data-name="Rectangle 3" width="4.314" height="26.447" transform="translate(71.464 4.89)"/>
  <rect id="Rectangle_4" data-name="Rectangle 4" width="4.314" height="26.447" transform="translate(132.612 4.89)"/>
  <path id="Path_75" data-name="Path 75" d="M82.308,173.747V147.3H77.994v11.817H64.3V147.3H59.8v26.447h4.5V160.993H77.994v12.755Z" transform="translate(-16.846 -142.41)"/>
  <path id="Path_76" data-name="Path 76" d="M121.728,171.872H117.6v-22.7h4.127c7.878,0,9.754,5.815,9.754,11.442,0,5.815-2.063,11.254-9.754,11.254m.188-24.572H113.1v26.447h8.816c12.942,0,13.88-10.879,13.88-13.317,0-3.189-1.5-13.13-13.88-13.13" transform="translate(29.828 -142.41)"/>
  <path id="Path_77" data-name="Path 77" d="M140.768,172.609c-8.816,0-9.754-8.253-9.754-12,0-3.564.75-12,9.566-12s9.754,8.253,9.754,12c.188,3.564-.563,12-9.566,12m0-25.509c-8.441,0-14.068,6-14.068,13.693s5.627,13.693,14.068,13.693,14.068-6,14.068-13.693c0-7.878-5.627-13.693-14.068-13.693" transform="translate(41.738 -142.585)"/>
  <path id="Path_78" data-name="Path 78" d="M108.511,149.151l.563-1.313a9.973,9.973,0,0,0-3.939-.938c-4.5.188-7.5,3.189-9.379,6.19a33.836,33.836,0,0,0-3.189,6.94c-.75,2.251-2.063,6-2.626,7.315-1.688,3.939-3,5.627-6.377,5.627-2.063,0-4.314-1.876-4.314-1.876l-.75,1.125a9.1,9.1,0,0,0,6,2.251,9.618,9.618,0,0,0,8.441-4.877,42.9,42.9,0,0,0,3.751-8.253c1.125-3,2.063-6.753,3.189-9.191,1.313-2.438,3.189-3.939,5.627-3.939a18.869,18.869,0,0,1,3,.938" transform="translate(-0.471 -142.76)"/>
  <path id="Path_79" data-name="Path 79" d="M85.018,146.394a13.757,13.757,0,0,0-7.69-1.688c-5.815.188-10.691,4.127-13.317,8.065a37.307,37.307,0,0,0-4.127,8.816c-.75,1.876-1.876,4.689-2.814,6.94-1.876,4.314-5.064,8.066-10.129,7.69a15.58,15.58,0,0,1-8.816-4.127L37,173.4a16,16,0,0,0,10.879,4.877c5.064.188,10.879-3,13.693-7.69a48.8,48.8,0,0,0,3.189-7.315,67.019,67.019,0,0,1,3.189-9.379c1.313-2.438,4.689-6.94,10.129-7.128a13.97,13.97,0,0,1,6.377,1.5Z" transform="translate(-36.812 -144.693)"/>
  <path id="Path_80" data-name="Path 80" d="M113.056,171.872H100.3V160.805h11.629v-2.063H100.3v-9.566h12.755V147.3H95.8v26.447h17.256Z" transform="translate(14.679 -142.41)"/>
  <rect id="Rectangle_5" data-name="Rectangle 5" width="4.314" height="26.447" transform="translate(71.652 4.89)"/>
  <rect id="Rectangle_6" data-name="Rectangle 6" width="4.314" height="26.447" transform="translate(132.8 4.89)"/>
  <path id="Path_81" data-name="Path 81" d="M82.408,173.747V147.3H78.094v11.817H64.4V147.3H59.9v26.447h4.5V160.993H78.094v12.755Z" transform="translate(-16.759 -142.41)"/>
  <path id="Path_82" data-name="Path 82" d="M121.828,171.872H117.7v-22.7h4.127c7.878,0,9.754,5.815,9.754,11.442,0,5.815-2.063,11.254-9.754,11.254m.188-24.572H113.2v26.447h8.816c12.942,0,13.88-10.879,13.88-13.317,0-3.189-1.313-13.13-13.88-13.13" transform="translate(29.916 -142.41)"/>
  <path id="Path_83" data-name="Path 83" d="M140.868,172.609c-8.816,0-9.754-8.253-9.754-12,0-3.564.75-12,9.566-12s9.754,8.253,9.754,12c.188,3.564-.563,12-9.566,12m0-25.509c-8.441,0-14.068,6-14.068,13.693s5.627,13.693,14.068,13.693,14.068-6,14.068-13.693c0-7.878-5.627-13.693-14.068-13.693" transform="translate(41.825 -142.585)"/>
</svg>
