<svg id="skinbrands" xmlns="http://www.w3.org/2000/svg" width="168.813" height="44.079" viewBox="0 0 168.813 44.079">
  <path id="Path_416" data-name="Path 416" d="M80.576,113.051h-1.5v2.626c0,.563,0,1.125.75,1.125a1.128,1.128,0,0,0,.75-.188v.75a2.039,2.039,0,0,1-.938.188c-1.125,0-1.313-.563-1.313-1.688v-2.814H77.2v-.75h1.125v-1.5h.938v1.5h1.313Z" transform="translate(-15.677 -75.537)"/>
  <path id="Path_417" data-name="Path 417" d="M79.5,109.9h.938v3.751h0A2,2,0,0,1,84,114.964v3.189h-.938v-3c0-.938-.375-1.313-1.125-1.313-1.125,0-1.5.75-1.5,1.876v2.438H79.5Z" transform="translate(-13.663 -76.325)"/>
  <path id="Path_418" data-name="Path 418" d="M86.527,113.663a1.38,1.38,0,0,0-1.5-1.5,1.642,1.642,0,0,0-1.688,1.5Zm.75,2.063a2.674,2.674,0,0,1-2.251,1.125,2.461,2.461,0,0,1-2.626-2.626,2.564,2.564,0,0,1,2.626-2.626,2.323,2.323,0,0,1,2.438,2.626v.188H83.338a1.681,1.681,0,0,0,1.688,1.688,2.037,2.037,0,0,0,1.688-.75Z" transform="translate(-11.123 -74.836)"/>
  <path id="Path_419" data-name="Path 419" d="M89.914,116a1.876,1.876,0,1,0-1.876-1.876A1.772,1.772,0,0,0,89.914,116M87.1,111.688h.938v.75h0a2.308,2.308,0,0,1,1.876-.938,2.461,2.461,0,0,1,2.626,2.626,2.564,2.564,0,0,1-2.626,2.626,1.733,1.733,0,0,1-1.876-1.125h0V119H87.1Z" transform="translate(-7.008 -74.924)"/>
  <path id="Path_420" data-name="Path 420" d="M90.6,112.813v-1.125h.75v.75h0a1.758,1.758,0,0,1,1.688-.938h.375v.938h-.375c-1.125,0-1.5.75-1.5,1.876v2.438H90.6Z" transform="translate(-3.943 -74.924)"/>
  <path id="Path_421" data-name="Path 421" d="M94.926,116a1.876,1.876,0,1,0-1.876-1.876A1.772,1.772,0,0,0,94.926,116m0-4.5a2.626,2.626,0,1,1-2.626,2.626,2.564,2.564,0,0,1,2.626-2.626" transform="translate(-2.454 -74.924)"/>
  <path id="Path_422" data-name="Path 422" d="M96.525,113.839H95.4v-.75h1.125v-1.125c0-1.313.375-2.063,1.876-2.063.188,0,.563,0,.563.188l-.188.75c-.188,0-.375-.188-.563-.188-.938,0-.938.563-.938,1.5v.938h1.313v.75H97.276v4.314h-.75Z" transform="translate(0.261 -76.325)"/>
  <path id="Path_423" data-name="Path 423" d="M101.427,113.663a1.38,1.38,0,0,0-1.5-1.5,1.642,1.642,0,0,0-1.688,1.5Zm.75,2.063a2.674,2.674,0,0,1-2.251,1.125,2.461,2.461,0,0,1-2.626-2.626,2.564,2.564,0,0,1,2.626-2.626,2.323,2.323,0,0,1,2.438,2.626v.188H98.238a1.681,1.681,0,0,0,1.688,1.688,2.037,2.037,0,0,0,1.688-.75Z" transform="translate(1.925 -74.836)"/>
  <path id="Path_424" data-name="Path 424" d="M101.038,115.351a1.9,1.9,0,0,0,1.313.75c.563,0,1.125-.188,1.125-.75s-.563-.75-1.125-.75c-.938-.188-1.876-.375-1.876-1.5a1.7,1.7,0,0,1,1.876-1.5,1.64,1.64,0,0,1,1.688.938l-.75.563a1.134,1.134,0,0,0-1.125-.563c-.563,0-.938.188-.938.75,0,.375.563.563,1.313.75.938.188,1.688.563,1.688,1.5,0,1.125-.938,1.688-2.063,1.688a2.2,2.2,0,0,1-2.063-.938Z" transform="translate(4.376 -74.836)"/>
  <path id="Path_425" data-name="Path 425" d="M103.438,115.351a1.9,1.9,0,0,0,1.313.75c.563,0,1.125-.188,1.125-.75s-.563-.75-1.125-.75c-.938-.188-1.876-.375-1.876-1.5a1.7,1.7,0,0,1,1.876-1.5,1.64,1.64,0,0,1,1.688.938l-.75.563a1.134,1.134,0,0,0-1.125-.563c-.563,0-.938.188-.938.75,0,.375.563.563,1.313.75.938.188,1.688.563,1.688,1.5,0,1.125-.938,1.688-2.063,1.688a2.2,2.2,0,0,1-2.063-.938Z" transform="translate(6.478 -74.836)"/>
  <path id="Path_426" data-name="Path 426" d="M105.388,112.826h.938v5.064h-.938Zm.375-2.626a.6.6,0,0,1,.563.563.563.563,0,1,1-.563-.563" transform="translate(8.843 -76.062)"/>
  <path id="Path_427" data-name="Path 427" d="M109.026,116a1.876,1.876,0,1,0-1.876-1.876c.188,1.125.75,1.876,1.876,1.876m0-4.5a2.626,2.626,0,1,1-2.626,2.626,2.564,2.564,0,0,1,2.626-2.626" transform="translate(9.893 -74.924)"/>
  <path id="Path_428" data-name="Path 428" d="M109.988,112.813v-1.125h.75v.75h0a1.758,1.758,0,0,1,1.688-.938,1.823,1.823,0,0,1,1.876,2.063v3.189h-.938v-3c0-.938-.375-1.313-1.125-1.313-1.125,0-1.5.75-1.5,1.876v2.438H109.8v-3.939Z" transform="translate(12.871 -74.924)"/>
  <path id="Path_429" data-name="Path 429" d="M115.614,114.314c-1.125,0-1.688.375-1.688.938a1.05,1.05,0,0,0,1.125.938,1.479,1.479,0,0,0,1.5-1.5v-.375Zm-2.626-2.063a2.821,2.821,0,0,1,2.063-.75,1.8,1.8,0,0,1,2.063,2.063v3.189h-.75V116h0a1.97,1.97,0,0,1-1.688.938c-1.125,0-1.876-.563-1.876-1.5,0-1.688,1.876-1.876,3.189-1.876h.375v-.188c0-.75-.375-1.125-1.313-1.125a2.13,2.13,0,0,0-1.5.563Z" transform="translate(15.498 -74.924)"/>
  <rect id="Rectangle_15" data-name="Rectangle 15" width="0.938" height="8.253" transform="translate(134.113 33.575)"/>
  <path id="Path_430" data-name="Path 430" d="M122.439,112.913a1.7,1.7,0,0,0-1.313-.563,1.886,1.886,0,0,0,0,3.751,1.7,1.7,0,0,0,1.313-.563l.563.563a2.408,2.408,0,0,1-1.876.75,2.626,2.626,0,1,1,0-5.252,2.175,2.175,0,0,1,1.876.75Z" transform="translate(20.489 -74.836)"/>
  <path id="Path_431" data-name="Path 431" d="M121.3,109.9h.938v3.751h0a2,2,0,0,1,3.564,1.313v3.189h-.938v-3c0-.938-.375-1.313-1.125-1.313-1.125,0-1.5.75-1.5,1.876v2.438H121.3Z" transform="translate(22.941 -76.325)"/>
  <path id="Path_432" data-name="Path 432" d="M126.926,116a1.876,1.876,0,1,0-1.876-1.876c.188,1.125.75,1.876,1.876,1.876m0-4.5a2.626,2.626,0,1,1-2.626,2.626,2.564,2.564,0,0,1,2.626-2.626" transform="translate(25.568 -74.924)"/>
  <path id="Path_433" data-name="Path 433" d="M127.888,112.826h.938v5.064h-.938Zm.375-2.626a.6.6,0,0,1,.563.563.563.563,0,1,1-.563-.563" transform="translate(28.546 -76.062)"/>
  <path id="Path_434" data-name="Path 434" d="M132.839,112.913a1.7,1.7,0,0,0-1.313-.563,1.886,1.886,0,0,0,0,3.751,1.7,1.7,0,0,0,1.313-.563l.563.563a2.408,2.408,0,0,1-1.876.75,2.626,2.626,0,0,1,0-5.252,2.175,2.175,0,0,1,1.876.75Z" transform="translate(29.597 -74.836)"/>
  <path id="Path_435" data-name="Path 435" d="M135.627,113.663a1.38,1.38,0,0,0-1.5-1.5,1.642,1.642,0,0,0-1.688,1.5Zm.75,2.063a2.674,2.674,0,0,1-2.251,1.125,2.461,2.461,0,0,1-2.626-2.626,2.564,2.564,0,0,1,2.626-2.626,2.323,2.323,0,0,1,2.438,2.626v.188h-4.127a1.681,1.681,0,0,0,1.688,1.688,2.037,2.037,0,0,0,1.688-.75Z" transform="translate(31.873 -74.836)"/>
  <path id="Path_436" data-name="Path 436" d="M55.842,102.94a4.534,4.534,0,0,0-3.564-1.876c-1.125,0-2.626.563-2.626,1.876,0,3.189,9.754.563,9.754,7.69,0,4.314-4.127,5.815-7.878,5.815a9.071,9.071,0,0,1-7.128-2.814l3-2.814a5.506,5.506,0,0,0,4.314,2.251c1.313,0,3-.563,3-2.063,0-3.751-9.754-.75-9.754-7.69,0-4.127,3.564-5.815,7.315-5.815,2.438,0,5.064.75,6.565,2.814Z" transform="translate(-44.4 -87.184)"/>
  <path id="Path_437" data-name="Path 437" d="M53.1,92.1h4.5v18.007l7.128-7.5h5.815l-7.878,8.253,8.253,9.941h-6L57.6,111.42h0V120.8H53.1Z" transform="translate(-36.781 -91.912)"/>
  <path id="Path_438" data-name="Path 438" d="M63.071,101.9h4.5V120.1h-4.5Zm2.251-9a2.811,2.811,0,0,1,3,2.814,2.927,2.927,0,0,1-3,2.814,2.762,2.762,0,0,1-2.814-2.814A2.655,2.655,0,0,1,65.322,92.9" transform="translate(-28.558 -91.212)"/>
  <path id="Path_439" data-name="Path 439" d="M66.8,97.875h4.314v3h0C71.864,99,73.74,97.5,76.741,97.5c4.877,0,6.565,3.376,6.565,7.128v11.442H78.8v-9.191c0-2.063-.188-5.44-3.376-5.44-3,0-4.127,2.251-4.127,4.689v9.941H66.8Z" transform="translate(-24.784 -87.184)"/>
  <path id="Path_440" data-name="Path 440" d="M86.954,106.255a5.44,5.44,0,1,0,5.44,5.44,5.323,5.323,0,0,0-5.44-5.44M77.2,92h4.5v12.755h.188a7.7,7.7,0,0,1,6.19-2.814c5.252,0,8.816,4.127,8.816,9.566s-3.376,9.566-9,9.566a7.206,7.206,0,0,1-6.377-3.189h0V120.7H77.2Z" transform="translate(-15.677 -92)"/>
  <path id="Path_441" data-name="Path 441" d="M88.8,97.863h4.5v2.814h0a5.845,5.845,0,0,1,5.44-3.376c.563,0,1.125.188,1.688.188v4.5a9.416,9.416,0,0,0-2.251-.375A4.543,4.543,0,0,0,93.3,106.3v9.754H88.8V97.863Z" transform="translate(-5.519 -87.359)"/>
  <path id="Path_442" data-name="Path 442" d="M107.267,107.9h-.938c-2.438,0-6.94.188-6.94,2.814,0,1.688,1.688,2.438,3.189,2.438,3.189,0,4.689-1.688,4.689-4.127Zm.188,5.815h0a7.052,7.052,0,0,1-6,3c-3.376,0-6.753-1.876-6.753-5.44,0-6,6.94-6.377,11.442-6.377h1.125v-.563c0-2.251-1.688-3.376-4.127-3.376a7.5,7.5,0,0,0-4.877,1.876L96.013,100.4a10.761,10.761,0,0,1,7.69-3c7.878,0,7.878,5.627,7.878,8.253v10.5h-4.127Z" transform="translate(-0.352 -87.271)"/>
  <path id="Path_443" data-name="Path 443" d="M105.1,97.775h4.314v3h0c.75-1.876,2.626-3.376,5.627-3.376,4.877,0,6.753,3.376,6.753,7.128v11.629h-4.5v-9.191c0-2.063-.188-5.44-3.376-5.44-3,0-4.127,2.251-4.127,4.689v9.941h-4.5V97.775Z" transform="translate(8.755 -87.271)"/>
  <path id="Path_444" data-name="Path 444" d="M125.041,117.134a5.44,5.44,0,1,0-5.44-5.44,5.323,5.323,0,0,0,5.44,5.44m5.44.938h0a7.206,7.206,0,0,1-6.377,3.189c-5.627,0-9-4.127-9-9.566s3.564-9.566,8.816-9.566a7.7,7.7,0,0,1,6.19,2.814h.188V92h4.5v28.886h-4.314v-2.814Z" transform="translate(17.512 -92)"/>
  <path id="Path_445" data-name="Path 445" d="M137.654,102.84a4.533,4.533,0,0,0-3.564-1.876c-1.125,0-2.626.563-2.626,1.876,0,3.189,9.941.563,9.941,7.69,0,4.314-4.127,5.815-7.878,5.815a9.071,9.071,0,0,1-7.128-2.814l3-2.814a5.506,5.506,0,0,0,4.314,2.251c1.313,0,3-.563,3-2.063,0-3.751-9.941-.75-9.941-7.69,0-4.127,3.751-5.815,7.315-5.815,2.438,0,5.064.75,6.565,2.814Z" transform="translate(27.407 -87.271)"/>
</svg>
