<svg id="Layer_1" data-name="Layer 1" xmlns="http://www.w3.org/2000/svg" viewBox="0 0 610 218.61"><path d="M75.32,34.07c-24.6,0-33.41,15.7-33.41,46.5,0,29.33,8.2,46.21,31.59,46.21,23.08,0,34.32-17.47,34.32-48.58,0-28.14-11.54-44.13-32.5-44.13M.3,215.65V40.58C.3,28.14.3,16,0,3.55H42.22a173.88,173.88,0,0,1,1.51,19.26C50.42,11.55,64.39,0,89.29,0c35.53,0,62.56,29,62.56,76.43,0,54.2-30.37,84.12-68.33,84.12-22.17,0-33.71-8.29-39.79-17.18v72.28Z"/><path d="M252.41,87.09H234.79c-26.42,0-36.14,8-36.14,22.81,0,11,7,20.44,22.78,20.44,27.64,0,31-19,31-39.1V87.09Zm42.52,30.22c0,14.81,1.21,36.13,2.12,39.69h-41.6c-1.22-3-2.13-11.26-2.13-15.11-5.77,8.59-16.4,18.66-44.34,18.66-38,0-53.76-24.29-53.76-48,0-35,28.55-51.25,74.71-51.25h22.48V52.14c0-11-3.95-21.63-24.3-21.63-18.22,0-22.47,7.41-24.29,18.66H162.51C164.64,21.92,182,0,229.93,0c41.92.3,65,16.29,65,53v64.29Z"/><path d="M379.76,120.86c26.12,0,33.1-17.48,33.1-43.25s-4.56-43.54-32.19-43.54c-18.83,0-33.71,14.22-33.71,45,0,26.37,13.66,41.77,32.8,41.77m74.4,17.48c0,49.17-18.52,80.27-78.05,80.27-57.4,0-68.64-31.1-70.15-48.58H350.3c3,10.67,10.93,17.78,27.63,17.78,28.25,0,33.71-16.89,33.71-46.81v-7.4c-8.2,13.33-21.26,21.62-44.34,21.62-41.3,0-65-33.18-65-74.35C302.31,32.88,331.77,0,371,0c27,0,38.26,12.44,40.69,19.55.31-4.15,1.52-13.33,1.83-16h41c0,13.93-.31,29.33-.31,44.14v90.65Z"/><path d="M566.26,63.39c-.3-17.77-7.59-32.88-28.85-32.88-20.65,0-29.16,13.92-31,32.88ZM505.52,89.46c0,19.25,10,37.92,31.59,37.92,18.22,0,23.38-7.11,27.63-16.3h43.43c-5.47,18.67-22.78,49.47-72,49.47-51.93,0-74.4-37.62-74.4-77.9C461.79,34.36,487,0,537.71,0,591.47,0,610,38.21,610,76.43a87,87,0,0,1-.61,13Z"/></svg>