<svg id="instagram-sketched" xmlns="http://www.w3.org/2000/svg" width="17.996" height="18" viewBox="0 0 17.996 18">
  <path id="Path_13" data-name="Path 13" d="M18.4,5.292a6.577,6.577,0,0,0-.418-2.184A4.611,4.611,0,0,0,15.347.475,6.594,6.594,0,0,0,13.164.056C12.2.011,11.894,0,9.45,0S6.7.011,5.741.053A6.579,6.579,0,0,0,3.557.471a4.392,4.392,0,0,0-1.6,1.041A4.432,4.432,0,0,0,.923,3.1,6.6,6.6,0,0,0,.5,5.289C.459,6.252.449,6.558.449,9s.011,2.75.053,3.71A6.577,6.577,0,0,0,.92,14.9a4.61,4.61,0,0,0,2.634,2.634,6.6,6.6,0,0,0,2.184.418C6.7,17.99,7,18,9.447,18s2.75-.01,3.71-.053a6.576,6.576,0,0,0,2.184-.418A4.6,4.6,0,0,0,17.974,14.9a6.6,6.6,0,0,0,.418-2.184c.042-.96.053-1.266.053-3.71s0-2.75-.046-3.71Zm-1.621,7.349a4.934,4.934,0,0,1-.309,1.67A2.986,2.986,0,0,1,14.76,16.02a4.951,4.951,0,0,1-1.67.309c-.949.042-1.234.053-3.636.053s-2.69-.01-3.636-.053a4.931,4.931,0,0,1-1.67-.309,2.77,2.77,0,0,1-1.034-.672,2.8,2.8,0,0,1-.672-1.034,4.952,4.952,0,0,1-.309-1.67C2.091,11.7,2.08,11.41,2.08,9.009s.01-2.69.053-3.636A4.931,4.931,0,0,1,2.442,3.7a2.736,2.736,0,0,1,.675-1.034A2.794,2.794,0,0,1,4.151,2a4.954,4.954,0,0,1,1.67-.309c.949-.042,1.234-.053,3.636-.053s2.69.011,3.636.053A4.934,4.934,0,0,1,14.763,2a2.768,2.768,0,0,1,1.034.672A2.8,2.8,0,0,1,16.469,3.7a4.954,4.954,0,0,1,.309,1.67c.042.949.053,1.234.053,3.636s-.011,2.683-.053,3.632Zm0,0" transform="translate(-0.449 0)" fill="#fff"/>
  <path id="Path_14" data-name="Path 14" d="M129.573,124.5a4.624,4.624,0,1,0,4.624,4.624A4.625,4.625,0,0,0,129.573,124.5Zm0,7.623a3,3,0,1,1,3-3A3,3,0,0,1,129.573,132.123Zm0,0" transform="translate(-120.571 -120.122)" fill="#fff"/>
  <path id="Path_15" data-name="Path 15" d="M364.609,89.681a1.08,1.08,0,1,1-1.08-1.079,1.08,1.08,0,0,1,1.08,1.079Zm0,0" transform="translate(-349.721 -85.486)" fill="#fff"/>
</svg>
