<svg id="twitter_1_" data-name="twitter (1)" xmlns="http://www.w3.org/2000/svg" width="19.11" height="15.527" viewBox="0 0 19.11 15.527">
  <g id="Group_76" data-name="Group 76" transform="translate(0 0)">
    <path id="Path_16" data-name="Path 16" d="M19.11,49.838a8.169,8.169,0,0,1-2.257.619,3.9,3.9,0,0,0,1.724-2.165,7.83,7.83,0,0,1-2.484.948,3.918,3.918,0,0,0-6.777,2.679,4.034,4.034,0,0,0,.091.893,11.089,11.089,0,0,1-8.075-4.1,3.919,3.919,0,0,0,1.2,5.236,3.869,3.869,0,0,1-1.77-.483v.043A3.936,3.936,0,0,0,3.9,57.361a3.91,3.91,0,0,1-1.027.129,3.464,3.464,0,0,1-.742-.067A3.955,3.955,0,0,0,5.8,60.152,7.872,7.872,0,0,1,.938,61.823,7.339,7.339,0,0,1,0,61.769a11.03,11.03,0,0,0,6.01,1.758A11.074,11.074,0,0,0,17.161,52.379c0-.173-.006-.34-.014-.506A7.816,7.816,0,0,0,19.11,49.838Z" transform="translate(0 -48)" fill="#fff"/>
  </g>
</svg>
